<?xml version="1.0" encoding="UTF-8" standalone="no"?>
<svg
   xmlns:dc="http://purl.org/dc/elements/1.1/"
   xmlns:cc="http://creativecommons.org/ns#"
   xmlns:rdf="http://www.w3.org/1999/02/22-rdf-syntax-ns#"
   xmlns:svg="http://www.w3.org/2000/svg"
   xmlns="http://www.w3.org/2000/svg"
   xmlns:sodipodi="http://sodipodi.sourceforge.net/DTD/sodipodi-0.dtd"
   xmlns:inkscape="http://www.inkscape.org/namespaces/inkscape"
   width="12pt"
   height="12pt"
   viewBox="0 0 12 12"
   version="1.1"
   id="svg23"
   sodipodi:docname="Orcus.svg"
   inkscape:version="0.92.5 (2060ec1f9f, 2020-04-08)">
  <metadata
     id="metadata27">
    <rdf:RDF>
      <cc:Work
         rdf:about="">
        <dc:format>image/svg+xml</dc:format>
        <dc:type
           rdf:resource="http://purl.org/dc/dcmitype/StillImage" />
      </cc:Work>
    </rdf:RDF>
  </metadata>
  <sodipodi:namedview
     pagecolor="#ffffff"
     bordercolor="#666666"
     borderopacity="1"
     objecttolerance="10"
     gridtolerance="10"
     guidetolerance="10"
     inkscape:pageopacity="0"
     inkscape:pageshadow="2"
     inkscape:window-width="1920"
     inkscape:window-height="1015"
     id="namedview25"
     showgrid="false"
     inkscape:zoom="29.5"
     inkscape:cx="-0.13559322"
     inkscape:cy="8"
     inkscape:window-x="0"
     inkscape:window-y="0"
     inkscape:window-maximized="1"
     inkscape:current-layer="svg23" />
  <defs
     id="defs8">
    <clipPath
       id="clip1">
      <path
         d="M 1 6 L 11 6 L 11 11 L 1 11 Z M 1 6 "
         id="path2" />
    </clipPath>
    <clipPath
       id="clip2">
      <path
         d="M 11 6 C 11 8.761719 8.761719 11 6 11 C 3.238281 11 1 8.761719 1 6 L 4.332031 6 C 4.332031 6.921875 5.078125 7.667969 6 7.667969 C 6.921875 7.667969 7.667969 6.921875 7.667969 6 "
         id="path5" />
    </clipPath>
  </defs>
  <path
     inkscape:connector-curvature="0"
     id="path12-3"
     d="m 5.3361575,8.3318113 c 0,-0.4609375 -0.1865235,-0.8779297 -0.4882813,-1.1796875 -0.3017578,-0.3017579 -0.71875,-0.4882813 -1.1796874,-0.4882813 -0.921875,0 -1.6679688,0.7460938 -1.6679688,1.6679688 0,0.9218747 0.7460938,1.6679687 1.6679688,1.6679687 0.9218749,0 1.6679687,-0.746094 1.6679687,-1.6679687 z"
     style="fill:none;stroke:#000000;stroke-width:0.60000002;stroke-linecap:butt;stroke-linejoin:miter;stroke-miterlimit:10;stroke-opacity:1"
     sodipodi:nodetypes="ssssss" />
  <path
     style="fill:none;stroke:#000000;stroke-width:0.60000002;stroke-linecap:round;stroke-linejoin:round;stroke-miterlimit:4;stroke-dasharray:none;stroke-opacity:1"
     d="M 4.848,7.152 8.33175,3.66825"
     id="path860"
     inkscape:connector-curvature="0"
     sodipodi:nodetypes="cc" />
</svg>
